<svg width="380" height="288" viewBox="0 0 380 288" fill="none" xmlns="http://www.w3.org/2000/svg">
<g clip-path="url(#clip0)">
<path d="M183.848 254.632C102.058 248.418 4.51923 185.152 9.48506 120.01C14.4509 54.8679 108.918 -5.77411 190.708 0.439466C272.498 6.65304 319.58 128.393 314.614 193.535C309.648 258.678 265.638 260.845 183.848 254.632Z" fill="#F2F2F2"/>
<path d="M190.708 265.095C285.002 265.095 361.442 260.42 361.442 254.652C361.442 248.885 285.002 244.21 190.708 244.21C96.4135 244.21 19.9731 248.885 19.9731 254.652C19.9731 260.42 96.4135 265.095 190.708 265.095Z" fill="#3F3D56"/>
<path opacity="0.1" d="M190.707 261.389C271.025 261.389 336.135 258.298 336.135 254.484C336.135 250.67 271.025 247.579 190.707 247.579C110.39 247.579 45.2795 250.67 45.2795 254.484C45.2795 258.298 110.39 261.389 190.707 261.389Z" fill="black"/>
<path d="M71.5983 288C111.141 288 143.197 285.21 143.197 281.768C143.197 278.327 111.141 275.537 71.5983 275.537C32.0556 275.537 0 278.327 0 281.768C0 285.21 32.0556 288 71.5983 288Z" fill="#3F3D56"/>
<path opacity="0.1" d="M71.5983 285.789C105.28 285.789 132.584 283.944 132.584 281.668C132.584 279.392 105.28 277.547 71.5983 277.547C37.9167 277.547 10.6124 279.392 10.6124 281.668C10.6124 283.944 37.9167 285.789 71.5983 285.789Z" fill="black"/>
<path d="M319.939 54.5682H66.1996V253.305H319.939V54.5682Z" fill="#3F3D56"/>
<path d="M190.183 81.7276H127.585C127.485 81.7278 127.386 81.7083 127.294 81.6703C127.202 81.6323 127.118 81.5765 127.047 81.506C126.976 81.4356 126.92 81.3519 126.882 81.2598C126.844 81.1677 126.824 81.0689 126.824 80.9692C126.824 80.8695 126.844 80.7707 126.882 80.6786C126.92 80.5865 126.976 80.5028 127.047 80.4324C127.118 80.3619 127.202 80.3061 127.294 80.2681C127.386 80.2301 127.485 80.2106 127.585 80.2108H190.183C190.384 80.2112 190.577 80.2913 190.719 80.4335C190.861 80.5757 190.941 80.7683 190.941 80.9692C190.941 81.1701 190.861 81.3627 190.719 81.5049C190.577 81.6471 190.384 81.7272 190.183 81.7276Z" fill="#F2F2F2"/>
<path d="M258.705 90.0697H160.251C160.05 90.0697 159.857 89.9898 159.714 89.8476C159.572 89.7054 159.492 89.5125 159.492 89.3114C159.492 89.1102 159.572 88.9173 159.714 88.7751C159.857 88.6329 160.05 88.553 160.251 88.553H258.705C258.805 88.553 258.904 88.5726 258.996 88.6107C259.088 88.6488 259.172 88.7047 259.243 88.7751C259.313 88.8455 259.369 88.9291 259.407 89.0211C259.445 89.1131 259.465 89.2118 259.465 89.3114C259.465 89.411 259.445 89.5096 259.407 89.6016C259.369 89.6936 259.313 89.7772 259.243 89.8476C259.172 89.918 259.088 89.9739 258.996 90.012C258.904 90.0501 258.805 90.0697 258.705 90.0697Z" fill="#F2F2F2"/>
<path d="M190.487 98.4119H127.889C127.688 98.4119 127.494 98.332 127.352 98.1898C127.21 98.0475 127.13 97.8546 127.13 97.6535C127.13 97.4524 127.21 97.2595 127.352 97.1173C127.494 96.975 127.688 96.8951 127.889 96.8951H190.487C190.688 96.8951 190.881 96.975 191.024 97.1173C191.166 97.2595 191.246 97.4524 191.246 97.6535C191.246 97.8546 191.166 98.0475 191.024 98.1898C190.881 98.332 190.688 98.4119 190.487 98.4119Z" fill="#F2F2F2"/>
<path d="M258.705 98.5635H196.108C195.907 98.5635 195.713 98.4836 195.571 98.3414C195.428 98.1992 195.348 98.0063 195.348 97.8051C195.348 97.604 195.428 97.4111 195.571 97.2689C195.713 97.1267 195.907 97.0468 196.108 97.0468H258.705C258.907 97.0468 259.1 97.1267 259.243 97.2689C259.385 97.4111 259.465 97.604 259.465 97.8051C259.465 98.0063 259.385 98.1992 259.243 98.3414C259.1 98.4836 258.907 98.5635 258.705 98.5635Z" fill="#F2F2F2"/>
<path d="M190.638 106.754H128.041C127.84 106.754 127.646 106.674 127.504 106.532C127.361 106.39 127.281 106.197 127.281 105.996C127.281 105.795 127.361 105.602 127.504 105.459C127.646 105.317 127.84 105.237 128.041 105.237H190.638C190.84 105.237 191.033 105.317 191.176 105.459C191.318 105.602 191.398 105.795 191.398 105.996C191.398 106.197 191.318 106.39 191.176 106.532C191.033 106.674 190.84 106.754 190.638 106.754Z" fill="#F2F2F2"/>
<path d="M190.79 115.096H128.193C127.992 115.096 127.798 115.016 127.656 114.874C127.513 114.732 127.433 114.539 127.433 114.338C127.433 114.137 127.513 113.944 127.656 113.801C127.798 113.659 127.992 113.579 128.193 113.579H190.79C190.992 113.579 191.185 113.659 191.328 113.801C191.47 113.944 191.55 114.137 191.55 114.338C191.55 114.539 191.47 114.732 191.328 114.874C191.185 115.016 190.992 115.096 190.79 115.096Z" fill="#F2F2F2"/>
<path d="M219.202 81.8792H201.274C201.072 81.8792 200.879 81.7993 200.737 81.6571C200.594 81.5148 200.514 81.3219 200.514 81.1208C200.514 80.9197 200.594 80.7268 200.737 80.5845C200.879 80.4423 201.072 80.3624 201.274 80.3624H219.202C219.404 80.3624 219.597 80.4423 219.74 80.5845C219.882 80.7268 219.962 80.9197 219.962 81.1208C219.962 81.3219 219.882 81.5148 219.74 81.6571C219.597 81.7993 219.404 81.8792 219.202 81.8792Z" fill="#F2F2F2"/>
<path d="M219.202 106.754H201.274C201.072 106.754 200.879 106.674 200.737 106.532C200.594 106.39 200.514 106.197 200.514 105.996C200.514 105.795 200.594 105.602 200.737 105.459C200.879 105.317 201.072 105.237 201.274 105.237H219.202C219.404 105.237 219.597 105.317 219.74 105.459C219.882 105.602 219.962 105.795 219.962 105.996C219.962 106.197 219.882 106.39 219.74 106.532C219.597 106.674 219.404 106.754 219.202 106.754Z" fill="#F2F2F2"/>
<path d="M219.202 114.944H201.274C201.174 114.945 201.075 114.925 200.983 114.887C200.89 114.849 200.806 114.793 200.736 114.723C200.665 114.652 200.609 114.569 200.571 114.477C200.532 114.385 200.513 114.286 200.513 114.186C200.513 114.086 200.532 113.988 200.571 113.896C200.609 113.803 200.665 113.72 200.736 113.649C200.806 113.579 200.89 113.523 200.983 113.485C201.075 113.447 201.174 113.428 201.274 113.428H219.202C219.302 113.428 219.401 113.447 219.493 113.485C219.586 113.523 219.67 113.579 219.74 113.649C219.811 113.72 219.867 113.803 219.906 113.896C219.944 113.988 219.964 114.086 219.964 114.186C219.964 114.286 219.944 114.385 219.906 114.477C219.867 114.569 219.811 114.652 219.74 114.723C219.67 114.793 219.586 114.849 219.493 114.887C219.401 114.925 219.302 114.945 219.202 114.944Z" fill="#F2F2F2"/>
<path d="M249.285 114.944H231.357C231.156 114.944 230.963 114.864 230.821 114.722C230.679 114.58 230.599 114.387 230.599 114.186C230.599 113.985 230.679 113.793 230.821 113.65C230.963 113.508 231.156 113.428 231.357 113.428H249.285C249.385 113.428 249.484 113.447 249.577 113.485C249.669 113.523 249.753 113.579 249.824 113.649C249.894 113.72 249.95 113.803 249.989 113.896C250.027 113.988 250.047 114.086 250.047 114.186C250.047 114.286 250.027 114.385 249.989 114.477C249.95 114.569 249.894 114.652 249.824 114.723C249.753 114.793 249.669 114.849 249.577 114.887C249.484 114.925 249.385 114.945 249.285 114.944Z" fill="#F2F2F2"/>
<path d="M145.362 90.0697H127.433C127.232 90.0697 127.039 89.9898 126.896 89.8476C126.754 89.7054 126.674 89.5125 126.674 89.3114C126.674 89.1102 126.754 88.9173 126.896 88.7751C127.039 88.6329 127.232 88.553 127.433 88.553H145.362C145.563 88.553 145.756 88.6329 145.899 88.7751C146.041 88.9173 146.121 89.1102 146.121 89.3114C146.121 89.5125 146.041 89.7054 145.899 89.8476C145.756 89.9898 145.563 90.0697 145.362 90.0697Z" fill="#F2F2F2"/>
<path d="M190.259 204.585H127.661C127.46 204.585 127.267 204.505 127.124 204.362C126.982 204.22 126.902 204.027 126.902 203.826C126.902 203.625 126.982 203.432 127.124 203.29C127.267 203.148 127.46 203.068 127.661 203.068H190.259C190.46 203.068 190.653 203.148 190.796 203.29C190.938 203.432 191.018 203.625 191.018 203.826C191.018 204.027 190.938 204.22 190.796 204.362C190.653 204.505 190.46 204.585 190.259 204.585Z" fill="#F2F2F2"/>
<path d="M189.955 221.269H127.357C127.156 221.269 126.963 221.189 126.82 221.047C126.678 220.904 126.598 220.712 126.598 220.51C126.598 220.309 126.678 220.116 126.82 219.974C126.963 219.832 127.156 219.752 127.357 219.752H189.955C190.156 219.752 190.349 219.832 190.492 219.974C190.634 220.116 190.714 220.309 190.714 220.51C190.714 220.712 190.634 220.904 190.492 221.047C190.349 221.189 190.156 221.269 189.955 221.269Z" fill="#F2F2F2"/>
<path d="M190.107 229.611H127.509C127.409 229.611 127.31 229.592 127.218 229.554C127.126 229.516 127.042 229.46 126.971 229.389C126.9 229.319 126.844 229.235 126.806 229.143C126.768 229.051 126.748 228.952 126.748 228.853C126.748 228.753 126.768 228.654 126.806 228.562C126.844 228.47 126.9 228.386 126.971 228.316C127.042 228.245 127.126 228.189 127.218 228.151C127.31 228.113 127.409 228.094 127.509 228.094H190.107C190.207 228.094 190.306 228.113 190.398 228.151C190.49 228.189 190.574 228.245 190.645 228.316C190.716 228.386 190.772 228.47 190.81 228.562C190.848 228.654 190.868 228.753 190.868 228.853C190.868 228.952 190.848 229.051 190.81 229.143C190.772 229.235 190.716 229.319 190.645 229.389C190.574 229.46 190.49 229.516 190.398 229.554C190.306 229.592 190.207 229.611 190.107 229.611Z" fill="#F2F2F2"/>
<path d="M216.847 221.42H198.919C198.717 221.42 198.524 221.341 198.382 221.198C198.239 221.056 198.159 220.863 198.159 220.662C198.159 220.461 198.239 220.268 198.382 220.126C198.524 219.984 198.717 219.904 198.919 219.904H216.847C217.049 219.904 217.242 219.984 217.384 220.126C217.527 220.268 217.607 220.461 217.607 220.662C217.607 220.863 217.527 221.056 217.384 221.198C217.242 221.341 217.049 221.42 216.847 221.42Z" fill="#F2F2F2"/>
<path d="M216.847 229.611H198.919C198.717 229.611 198.524 229.531 198.382 229.389C198.239 229.247 198.159 229.054 198.159 228.853C198.159 228.651 198.239 228.458 198.382 228.316C198.524 228.174 198.717 228.094 198.919 228.094H216.847C217.049 228.094 217.242 228.174 217.384 228.316C217.527 228.458 217.607 228.651 217.607 228.853C217.607 229.054 217.527 229.247 217.384 229.389C217.242 229.531 217.049 229.611 216.847 229.611Z" fill="#F2F2F2"/>
<path d="M246.93 221.42H229.002C228.801 221.42 228.607 221.341 228.465 221.198C228.322 221.056 228.242 220.863 228.242 220.662C228.242 220.461 228.322 220.268 228.465 220.126C228.607 219.984 228.801 219.904 229.002 219.904H246.93C247.132 219.904 247.325 219.984 247.468 220.126C247.61 220.268 247.69 220.461 247.69 220.662C247.69 220.863 247.61 221.056 247.468 221.198C247.325 221.341 247.132 221.42 246.93 221.42Z" fill="#F2F2F2"/>
<path d="M258.781 212.927H160.327C160.126 212.927 159.933 212.847 159.79 212.704C159.648 212.562 159.568 212.369 159.568 212.168C159.568 211.967 159.648 211.774 159.79 211.632C159.933 211.49 160.126 211.41 160.327 211.41H258.781C258.983 211.41 259.176 211.49 259.319 211.632C259.461 211.774 259.541 211.967 259.541 212.168C259.541 212.369 259.461 212.562 259.319 212.704C259.176 212.847 258.983 212.927 258.781 212.927Z" fill="#F2F2F2"/>
<path d="M145.438 212.927H127.509C127.308 212.927 127.115 212.847 126.972 212.704C126.83 212.562 126.75 212.369 126.75 212.168C126.75 211.967 126.83 211.774 126.972 211.632C127.115 211.49 127.308 211.41 127.509 211.41H145.438C145.639 211.41 145.832 211.49 145.975 211.632C146.117 211.774 146.197 211.967 146.197 212.168C146.197 212.369 146.117 212.562 145.975 212.704C145.832 212.847 145.639 212.927 145.438 212.927Z" fill="#F2F2F2"/>
<path d="M258.781 238.105H160.327C160.227 238.105 160.129 238.086 160.036 238.048C159.944 238.009 159.86 237.954 159.789 237.883C159.718 237.813 159.662 237.729 159.624 237.637C159.586 237.545 159.566 237.446 159.566 237.346C159.566 237.247 159.586 237.148 159.624 237.056C159.662 236.964 159.718 236.88 159.789 236.81C159.86 236.739 159.944 236.683 160.036 236.645C160.129 236.607 160.227 236.588 160.327 236.588H258.781C258.983 236.588 259.176 236.668 259.319 236.81C259.461 236.952 259.541 237.145 259.541 237.346C259.541 237.548 259.461 237.74 259.319 237.883C259.176 238.025 258.983 238.105 258.781 238.105Z" fill="#F2F2F2"/>
<path d="M145.438 238.105H127.509C127.409 238.105 127.31 238.086 127.218 238.048C127.126 238.009 127.042 237.954 126.971 237.883C126.9 237.813 126.844 237.729 126.806 237.637C126.768 237.545 126.748 237.446 126.748 237.346C126.748 237.247 126.768 237.148 126.806 237.056C126.844 236.964 126.9 236.88 126.971 236.81C127.042 236.739 127.126 236.683 127.218 236.645C127.31 236.607 127.409 236.588 127.509 236.588H145.438C145.538 236.588 145.637 236.607 145.729 236.645C145.821 236.683 145.905 236.739 145.976 236.81C146.047 236.88 146.103 236.964 146.141 237.056C146.179 237.148 146.199 237.247 146.199 237.346C146.199 237.446 146.179 237.545 146.141 237.637C146.103 237.729 146.047 237.813 145.976 237.883C145.905 237.954 145.821 238.009 145.729 238.048C145.637 238.086 145.538 238.105 145.438 238.105Z" fill="#F2F2F2"/>
<path d="M175.141 135.117L150.831 159.082L175.141 183.047L180.611 177.587L162.227 159.234L180.763 140.729L175.141 135.117Z" fill="#1D4ED8"/>
<path d="M210.998 135.117L235.307 159.082L210.998 183.047L205.528 177.587L223.912 159.234L205.376 140.729L210.998 135.117Z" fill="#1D4ED8"/>
<path d="M72.948 62.6525C74.6251 62.6525 75.9847 61.2952 75.9847 59.6209C75.9847 57.9466 74.6251 56.5894 72.948 56.5894C71.2708 56.5894 69.9112 57.9466 69.9112 59.6209C69.9112 61.2952 71.2708 62.6525 72.948 62.6525Z" fill="#1D4ED8"/>
<path d="M81.0461 62.6525C82.7232 62.6525 84.0828 61.2952 84.0828 59.6209C84.0828 57.9466 82.7232 56.5894 81.0461 56.5894C79.3689 56.5894 78.0093 57.9466 78.0093 59.6209C78.0093 61.2952 79.3689 62.6525 81.0461 62.6525Z" fill="#1D4ED8"/>
<path d="M89.1441 62.6525C90.8213 62.6525 92.1809 61.2952 92.1809 59.6209C92.1809 57.9466 90.8213 56.5894 89.1441 56.5894C87.467 56.5894 86.1074 57.9466 86.1074 59.6209C86.1074 61.2952 87.467 62.6525 89.1441 62.6525Z" fill="#1D4ED8"/>
<path opacity="0.1" d="M319.939 64.6736H66.1996V65.6841H319.939V64.6736Z" fill="black"/>
<path d="M380 204.616C380 226.097 367.208 233.597 351.428 233.597C335.649 233.597 322.857 226.097 322.857 204.616C322.857 183.135 351.428 155.808 351.428 155.808C351.428 155.808 380 183.135 380 204.616Z" fill="#F2F2F2"/>
<path d="M350.388 230.311L350.68 212.333L362.858 190.093L350.726 209.513L350.858 201.43L359.251 185.339L350.893 199.291L351.129 184.752L360.116 171.942L351.166 182.466L351.314 155.808L350.385 191.099L350.461 189.643L341.324 175.681L350.315 192.438L349.464 208.675L349.438 208.243L338.904 193.55L349.406 209.766L349.3 211.796L349.281 211.827L349.29 211.994L347.129 253.188H350.015L350.362 231.911L360.838 215.734L350.388 230.311Z" fill="#3F3D56"/>
<path d="M41.3749 252.999C40.4983 253.486 39.5736 253.882 38.6155 254.179C36.9018 254.646 35.0701 254.475 33.3392 254.874C32.6305 255.037 31.8592 255.379 31.6338 256.069C31.4685 256.575 31.6483 257.122 31.8205 257.626C33.7332 263.225 34.886 269.169 37.9363 274.24C39.2183 276.369 40.8094 278.298 42.6577 279.962C43.3512 280.586 44.137 281.196 45.0654 281.294C45.4932 281.339 45.9254 281.271 46.3183 281.096C46.7112 280.921 47.051 280.645 47.3032 280.298C47.5555 279.95 47.7114 279.542 47.7551 279.114C47.7988 278.687 47.7289 278.256 47.5523 277.864C47.2788 277.257 46.7704 276.788 46.4426 276.208C46.087 275.471 45.8785 274.671 45.8286 273.854C45.5273 271.459 45.237 268.957 46.068 266.691C46.6254 265.171 47.6478 263.875 48.4996 262.498C49.3514 261.121 50.059 259.543 49.8695 257.936C49.7402 256.839 49.2042 255.835 48.6379 254.886C48.0706 253.935 46.9492 251.38 45.8094 251.062C44.6262 250.733 42.4068 252.471 41.3749 252.999Z" fill="#2F2E41"/>
<path d="M72.5643 272.337C72.5822 272.878 72.5065 273.419 72.3406 273.935C71.9837 274.876 71.0985 275.52 70.6412 276.417C70.0052 277.663 70.2934 279.17 70.7148 280.504C70.979 281.341 71.3255 282.211 72.035 282.728C72.6417 283.104 73.3316 283.324 74.0439 283.371C80.1297 284.211 86.3118 283.729 92.4531 283.905C93.5724 283.937 94.7575 283.976 95.7345 283.43C96.7116 282.884 97.3157 281.511 96.6511 280.612C96.0544 279.804 94.8745 279.811 93.8701 279.764C91.2546 279.631 88.7639 278.607 86.8137 276.862C86.429 276.534 86.0955 276.15 85.8239 275.724C85.615 275.346 85.4417 274.95 85.3062 274.54C84.4452 272.212 83.421 269.947 82.2412 267.763C81.9109 267.151 81.537 266.515 80.9232 266.188C80.4739 265.984 79.9863 265.877 79.4928 265.876C77.9622 265.777 73.9985 265.257 72.8149 266.445C71.7213 267.543 72.5886 270.942 72.5643 272.337Z" fill="#2F2E41"/>
<path d="M81.9831 136.655C87.3827 136.655 91.7599 132.285 91.7599 126.895C91.7599 121.505 87.3827 117.135 81.9831 117.135C76.5836 117.135 72.2064 121.505 72.2064 126.895C72.2064 132.285 76.5836 136.655 81.9831 136.655Z" fill="#FBBEBE"/>
<path d="M73.1545 134.954C72.573 136.508 71.5866 137.968 70.1514 138.804L83.6733 141.558C83.1829 139.588 83.1183 137.536 83.4838 135.539C83.618 135.055 83.6456 134.549 83.5647 134.054C83.3104 133.074 82.2061 132.603 81.2179 132.378C78.75 131.816 76.5676 131.515 74.2742 130.427C73.5732 131.625 73.6714 133.573 73.1545 134.954Z" fill="#FBBEBE"/>
<path d="M70.0384 135.15C71.4931 134.493 73.0779 134.173 74.674 134.215C76.2702 134.256 77.8361 134.658 79.2544 135.39C80.988 136.302 82.4234 137.679 83.8337 139.037C85.1337 140.289 86.5204 141.723 86.6126 143.523C86.6573 144.396 86.3846 145.249 86.2469 146.112C85.9993 147.896 86.314 149.712 87.1471 151.31C87.9802 152.908 89.2906 154.207 90.8965 155.028C91.9707 156.814 92.1924 158.978 92.2089 161.062C92.2713 168.956 89.7764 176.948 91.5575 184.639C91.9757 186.445 92.6243 188.194 92.9856 190.012C93.4535 192.367 93.4304 194.789 93.6753 197.177C93.9408 199.763 94.5201 202.308 95.4006 204.754C94.8121 205.689 93.5874 206.047 92.4845 205.971C91.3816 205.896 90.3502 205.418 89.3661 204.915C84.6006 202.481 80.2358 199.27 75.3001 197.201C72.0346 195.833 68.5559 194.98 65.3881 193.399C62.2202 191.818 59.2741 189.309 58.3055 185.908C57.8866 184.438 57.8608 182.889 57.838 181.36C57.7417 174.922 57.6523 168.413 59.0561 162.128C60.2941 156.586 62.6804 151.284 63.2011 145.63C63.3705 143.789 63.3741 141.819 64.4043 140.283C65.8603 138.112 69.0042 137.55 70.0384 135.15Z" fill="#2F2E41"/>
<path d="M76.4227 127.033C76.9988 126.283 78.1099 126.18 79.0302 126.402C79.9506 126.624 80.7992 127.098 81.7287 127.278C81.94 127.338 82.1615 127.353 82.379 127.322C82.5965 127.292 82.8052 127.216 82.9918 127.101C83.3167 126.781 83.511 126.352 83.5369 125.898C83.8624 123.964 83.9385 121.997 83.7632 120.043C83.7148 119.769 83.7332 119.488 83.8168 119.222C84.0469 118.669 84.749 118.537 85.3224 118.36C86.2684 118.04 87.081 117.416 87.6317 116.584C88.1824 115.752 88.4399 114.761 88.3635 113.767C88.3492 113.291 88.1486 112.838 87.8045 112.507C87.408 112.185 86.853 112.165 86.3414 112.161C83.7134 112.14 81.0853 112.14 78.4571 112.163C77.4844 112.171 76.4628 112.195 75.6196 112.679C74.9962 113.037 74.5325 113.613 73.9728 114.064C72.5131 115.24 70.5386 115.479 68.7627 116.082C67.8957 116.328 67.1085 116.797 66.4792 117.441C65.8886 118.115 65.6046 119.116 65.9756 119.931C66.166 120.271 66.3787 120.598 66.6122 120.91C67.6598 122.582 66.9624 124.751 67.1188 126.717C67.3142 129.172 70.9536 133.154 73.4214 133.735C77.4056 134.673 75.1038 128.644 76.4227 127.033Z" fill="#2F2E41"/>
<path d="M70.9035 234.672C71.1549 236.464 71.4773 238.263 71.3911 240.071C71.2708 242.595 70.3589 245.027 70.1903 247.549C70.0644 249.432 70.3556 251.336 70.0937 253.205C69.9259 254.402 69.5349 255.556 69.2929 256.74C68.9096 258.669 68.9204 260.656 69.3247 262.582C69.729 264.507 70.5185 266.331 71.6458 267.945C71.8114 268.221 72.0468 268.449 72.3285 268.605C72.5987 268.705 72.8878 268.744 73.1747 268.717C76.0203 268.659 78.8583 268.402 81.6676 267.947C81.8733 267.938 82.0681 267.853 82.213 267.707C82.2763 267.61 82.3168 267.5 82.3314 267.385C82.8523 264.712 81.6644 262.032 81.3623 259.325C81.0398 256.435 81.7344 253.539 82.4239 250.714C82.7366 249.32 83.1272 247.945 83.5939 246.595C83.9271 245.686 84.3296 244.803 84.6185 243.879C85.0276 242.428 85.2767 240.937 85.3615 239.432C85.562 237.057 85.6683 234.677 85.6803 232.291C85.7484 230.03 85.5599 227.769 85.1184 225.551C84.4847 222.742 83.1871 220.134 81.9008 217.558C81.2131 217.722 80.5674 218.029 80.0052 218.457C78.3477 219.529 76.617 220.483 74.8259 221.314C73.6224 221.872 71.2755 222.268 70.5118 223.431C69.7585 224.578 70.2445 226.918 70.3021 228.182C70.4008 230.353 70.6013 232.516 70.9035 234.672Z" fill="#2F2E41"/>
<path opacity="0.1" d="M70.9035 234.672C71.1549 236.464 71.4773 238.263 71.3911 240.071C71.2708 242.595 70.3589 245.027 70.1903 247.549C70.0644 249.432 70.3556 251.336 70.0937 253.205C69.9259 254.402 69.5349 255.556 69.2929 256.74C68.9096 258.669 68.9204 260.656 69.3247 262.582C69.729 264.507 70.5185 266.331 71.6458 267.945C71.8114 268.221 72.0468 268.449 72.3285 268.605C72.5987 268.705 72.8878 268.744 73.1747 268.717C76.0203 268.659 78.8583 268.402 81.6676 267.947C81.8733 267.938 82.0681 267.853 82.213 267.707C82.2763 267.61 82.3168 267.5 82.3314 267.385C82.8523 264.712 81.6644 262.032 81.3623 259.325C81.0398 256.435 81.7344 253.539 82.4239 250.714C82.7366 249.32 83.1272 247.945 83.5939 246.595C83.9271 245.686 84.3296 244.803 84.6185 243.879C85.0276 242.428 85.2767 240.937 85.3615 239.432C85.562 237.057 85.6683 234.677 85.6803 232.291C85.7484 230.03 85.5599 227.769 85.1184 225.551C84.4847 222.742 83.1871 220.134 81.9008 217.558C81.2131 217.722 80.5674 218.029 80.0052 218.457C78.3477 219.529 76.617 220.483 74.8259 221.314C73.6224 221.872 71.2755 222.268 70.5118 223.431C69.7585 224.578 70.2445 226.918 70.3021 228.182C70.4008 230.353 70.6013 232.516 70.9035 234.672Z" fill="black"/>
<path d="M57.6857 196.385C56.3874 199.874 58.2958 203.645 59.9538 206.979C64.0386 215.194 66.8752 223.959 69.6966 232.686C69.908 233.34 70.1192 234.053 69.8835 234.699C69.6801 235.157 69.3498 235.548 68.9314 235.826C66.986 237.301 64.5089 237.826 62.1916 238.598C59.952 239.344 57.807 240.348 55.7999 241.589C54.1207 242.628 52.5476 243.827 50.9776 245.024L45.9797 248.835C45.6561 249.053 45.3734 249.326 45.1443 249.642C44.6623 250.397 44.8597 251.383 45.0997 252.245C45.7353 254.529 46.5536 256.759 47.5467 258.912C47.7102 259.384 48.0213 259.791 48.4342 260.073C49.2143 260.491 50.1684 259.936 50.7641 259.282C51.3598 258.628 51.875 257.814 52.7147 257.533C53.5535 257.253 54.4766 257.592 55.3526 257.47C56.7693 257.271 57.7099 255.968 58.7311 254.968C62.9034 250.882 69.8693 251.178 74.459 247.565C75.1225 246.973 75.8249 246.425 76.5615 245.926C77.3374 245.468 78.2173 245.216 79.0224 244.812C81.4709 243.581 83.0102 241.036 83.8348 238.426C84.6594 235.816 84.8945 233.061 85.4871 230.389C85.7934 229.008 86.1966 227.641 86.3329 226.233C86.4205 224.923 86.392 223.608 86.2475 222.303L84.5914 201.852C84.4566 200.187 84.3215 198.52 84.0597 196.87C79.1413 197.045 74.2264 197.243 69.3051 197.301C65.3892 197.347 61.4013 197.62 57.6857 196.385Z" fill="#2F2E41"/>
<path d="M55.8775 201.169C56.5447 202.24 58.1687 202.218 59.2869 201.631C60.4052 201.044 61.2739 200.057 62.3948 199.475C63.901 198.692 65.6833 198.722 67.3806 198.769C70.0676 198.845 72.7877 198.926 75.373 199.661C78.047 200.421 80.6502 201.885 83.4151 201.593C83.8962 201.542 84.4223 201.405 84.6841 200.999C84.8376 200.704 84.9097 200.375 84.8932 200.043L84.9836 197.632C85.039 197.215 84.9722 196.791 84.7913 196.411C84.5593 196.094 84.2412 195.851 83.8749 195.71C79.9395 193.808 75.4514 193.454 71.0816 193.305C68.8603 193.229 66.6381 193.198 64.415 193.211C62.5285 193.223 60.2637 192.95 58.4296 193.453C55.9681 194.129 54.6287 199.164 55.8775 201.169Z" fill="#2F2E41"/>
<path d="M80.5891 138.013C75.4326 137.967 70.7597 134.569 65.6037 134.487C64.9807 134.444 64.3566 134.551 63.7841 134.8C63.0656 135.161 62.5933 135.86 62.0475 136.45C60.5229 138.098 58.3152 138.978 56.749 140.587C55.2804 142.095 54.4637 144.342 55.0435 146.365C55.6233 148.387 57.8115 149.938 59.8615 149.452C60.6874 146.783 62.392 144.471 64.699 142.89C65.8994 142.122 67.1645 141.459 68.4799 140.909C70.7973 139.861 73.3886 138.793 75.808 139.578C76.7002 139.915 77.5415 140.373 78.308 140.939L82.3414 143.644C81.8714 141.794 81.4488 139.718 80.5891 138.013Z" fill="#1D4ED8"/>
<path d="M59.2675 147.663C58.5828 148.515 59.5692 149.751 59.4182 150.833C59.3179 151.553 58.725 152.102 58.4781 152.785C58.2224 153.492 58.358 154.276 58.261 155.022C58.1637 155.564 58.0197 156.097 57.8308 156.615C57.3964 158.162 57.0931 159.742 56.9243 161.339L56.0218 168.068C55.8651 169.081 55.7698 170.102 55.7363 171.126C55.7818 171.891 55.7306 172.659 55.5838 173.412C55.3839 174.147 54.9414 174.791 54.6437 175.492C54.346 176.194 54.208 177.042 54.6101 177.69C53.2633 178.81 52.8629 181.009 53.8046 182.485C53.9839 182.715 54.1241 182.972 54.2197 183.248C54.2717 183.633 54.2081 184.024 54.0369 184.373L53.1243 186.8C52.8906 187.422 52.8168 188.368 53.4662 188.51C52.9283 189.067 52.5092 189.728 52.2342 190.452C52.1008 190.816 52.061 191.207 52.1183 191.59C52.1756 191.972 52.3283 192.335 52.5623 192.643C52.7891 192.842 52.9821 193.076 53.1341 193.336C53.2233 193.699 53.2003 194.079 53.068 194.429C52.9315 194.959 52.9052 195.511 52.9907 196.052C53.0762 196.592 53.2716 197.11 53.565 197.572C53.869 198.029 54.2995 198.387 54.804 198.602C55.3084 198.818 55.865 198.883 56.4055 198.788C58.2311 198.377 59.8716 197.728 61.7123 198.065C65.6757 198.791 69.6517 199.52 73.4904 200.744C77.8714 202.14 82.1135 204.188 86.6922 204.618C86.9934 204.679 87.3068 204.63 87.5751 204.48C87.8084 204.26 87.9535 203.962 87.9834 203.643C88.4551 201.435 88.9268 199.227 89.3985 197.019C89.9688 194.571 90.4031 192.094 90.6994 189.599C90.8605 187.988 90.9064 186.369 90.9522 184.751L91.3169 171.873C91.4878 169.975 91.2342 168.063 90.5746 166.275L88.4767 159.589C87.2795 155.774 84.533 152.39 83.5552 148.513C82.9363 146.059 82.4791 143.426 80.8194 141.513C78.4533 138.787 74.3596 138.362 70.7765 138.831C69.1578 139.043 67.5253 139.409 66.1251 140.247C64.5061 141.216 63.3134 142.742 62.1595 144.234C61.2085 145.463 60.2405 146.451 59.2675 147.663Z" fill="#1D4ED8"/>
<path d="M67.6338 185.54C67.929 186.811 68.549 187.983 68.9285 189.231C69.5643 191.323 69.5104 193.575 70.1449 195.667C70.4113 196.545 70.7972 197.388 70.9884 198.285C71.4341 200.377 70.7833 202.541 69.9749 204.522C69.1665 206.503 68.1821 208.455 67.9196 210.578C67.7348 212.073 68.0003 213.761 69.1547 214.732C70.3531 215.739 72.0946 215.671 73.6555 215.537C74.2158 215.521 74.7689 215.406 75.289 215.197C76.4827 214.633 76.9854 213.223 77.2645 211.935C78.1995 207.617 77.9324 203.141 77.6607 198.732L76.95 187.2C76.8132 184.98 76.6666 182.714 75.9813 180.582C75.7321 179.807 75.2976 178.24 74.5881 177.745C73.8854 177.254 71.8786 177.233 71.0085 177.192C66.9265 177 66.9723 182.688 67.6338 185.54Z" fill="#FBBEBE"/>
<path d="M72.1566 142.964C71.3229 142.528 70.2726 142.716 69.4668 143.201C68.6887 143.733 68.0072 144.393 67.4517 145.154C65.6503 147.349 63.7432 149.868 64.0104 152.693C64.1106 153.752 64.5169 154.755 64.7923 155.783C66.0001 160.29 64.6645 165.056 64.8178 169.719C64.9063 172.413 65.4936 175.063 66.0785 177.695C66.1978 178.232 66.389 178.854 66.9095 179.035C67.3005 179.171 67.7228 178.996 68.1097 178.849C69.5514 178.317 71.1001 178.14 72.6249 178.332C74.1497 178.524 75.6059 179.079 76.8702 179.951C77.8369 179.436 77.4747 177.808 77.258 176.736C76.614 173.55 77.4881 170.264 78.5497 167.191C79.6113 164.119 80.8815 161.051 81.0574 157.805C81.2567 154.128 80.0354 150.54 78.8305 147.059C78.5674 146.299 78.28 145.503 77.6702 144.978C77.1481 144.591 76.5498 144.318 75.9146 144.177C74.6348 143.8 73.3389 143.582 72.1566 142.964Z" fill="#2F2E41"/>
</g>
<defs>
<clipPath id="clip0">
<rect width="380" height="288" fill="white" transform="translate(0 -0.00012207)"/>
</clipPath>
</defs>
</svg>
