<svg width="62" height="66" viewBox="0 0 62 66" fill="none" xmlns="http://www.w3.org/2000/svg">
<ellipse cx="2.00769" cy="2.15606" rx="2.00769" ry="2.15623" fill="#6C63FF"/>
<ellipse cx="2.00769" cy="22.5779" rx="2.00769" ry="2.15623" fill="#6C63FF"/>
<ellipse cx="2.00769" cy="42.9998" rx="2.00769" ry="2.15623" fill="#6C63FF"/>
<ellipse cx="2.00769" cy="63.4217" rx="2.00769" ry="2.15617" fill="#6C63FF"/>
<ellipse cx="21.0231" cy="2.15606" rx="2.00769" ry="2.15623" fill="#6C63FF"/>
<ellipse cx="21.0231" cy="22.5779" rx="2.00769" ry="2.15623" fill="#6C63FF"/>
<ellipse cx="21.0231" cy="42.9998" rx="2.00769" ry="2.15623" fill="#6C63FF"/>
<ellipse cx="21.0231" cy="63.4217" rx="2.00769" ry="2.15617" fill="#6C63FF"/>
<ellipse cx="40.0385" cy="2.15606" rx="2.00769" ry="2.15623" fill="#6C63FF"/>
<ellipse cx="40.0385" cy="22.5779" rx="2.00769" ry="2.15623" fill="#6C63FF"/>
<ellipse cx="40.0385" cy="42.9998" rx="2.00769" ry="2.15623" fill="#6C63FF"/>
<ellipse cx="40.0385" cy="63.4217" rx="2.00769" ry="2.15617" fill="#6C63FF"/>
<ellipse cx="59.0538" cy="2.15606" rx="2.00769" ry="2.15623" fill="#6C63FF"/>
<ellipse cx="59.0538" cy="22.5779" rx="2.00769" ry="2.15623" fill="#6C63FF"/>
<ellipse cx="59.0538" cy="42.9998" rx="2.00769" ry="2.15623" fill="#6C63FF"/>
<ellipse cx="59.0538" cy="63.4217" rx="2.00769" ry="2.15617" fill="#6C63FF"/>
</svg>
