<svg width="524" height="337" viewBox="0 0 524 337" fill="none" xmlns="http://www.w3.org/2000/svg">
<ellipse cx="172.5" cy="162.5" rx="154.5" ry="152.5" fill="#E9E9E9"/>
<ellipse cx="183.5" cy="152.5" rx="154.5" ry="152.5" fill="#1D4ED8"/>
<ellipse cx="2.00769" cy="77.3019" rx="2.00769" ry="2.05436" fill="#DCDCDC"/>
<ellipse cx="2.00769" cy="94.7128" rx="2.00769" ry="2.05436" fill="#DCDCDC"/>
<ellipse cx="2.00769" cy="112.124" rx="2.00769" ry="2.05436" fill="#DCDCDC"/>
<ellipse cx="2.00769" cy="129.535" rx="2.00769" ry="2.05437" fill="#DCDCDC"/>
<ellipse cx="2.00769" cy="146.946" rx="2.00769" ry="2.05437" fill="#DCDCDC"/>
<ellipse cx="19.0231" cy="77.3019" rx="2.00769" ry="2.05436" fill="#DCDCDC"/>
<ellipse cx="19.0231" cy="94.7128" rx="2.00769" ry="2.05436" fill="#DCDCDC"/>
<ellipse cx="19.0231" cy="112.124" rx="2.00769" ry="2.05436" fill="#DCDCDC"/>
<ellipse cx="19.0231" cy="129.535" rx="2.00769" ry="2.05437" fill="#DCDCDC"/>
<ellipse cx="19.0231" cy="146.946" rx="2.00769" ry="2.05437" fill="#DCDCDC"/>
<ellipse cx="36.0385" cy="77.3019" rx="2.00769" ry="2.05436" fill="#DCDCDC"/>
<ellipse cx="36.0385" cy="94.7128" rx="2.00769" ry="2.05436" fill="#DCDCDC"/>
<ellipse cx="36.0385" cy="112.124" rx="2.00769" ry="2.05436" fill="#DCDCDC"/>
<ellipse cx="36.0385" cy="129.535" rx="2.00769" ry="2.05437" fill="#DCDCDC"/>
<ellipse cx="36.0385" cy="146.946" rx="2.00769" ry="2.05437" fill="#DCDCDC"/>
<ellipse cx="53.0538" cy="77.3019" rx="2.00769" ry="2.05436" fill="#DCDCDC"/>
<ellipse cx="53.0538" cy="94.7128" rx="2.00769" ry="2.05436" fill="#DCDCDC"/>
<ellipse cx="53.0538" cy="112.124" rx="2.00769" ry="2.05436" fill="#DCDCDC"/>
<ellipse cx="53.0538" cy="129.535" rx="2.00769" ry="2.05437" fill="#DCDCDC"/>
<ellipse cx="53.0538" cy="146.946" rx="2.00769" ry="2.05437" fill="#DCDCDC"/>
<ellipse cx="70.0692" cy="77.3019" rx="2.00769" ry="2.05436" fill="#DCDCDC"/>
<ellipse cx="70.0692" cy="94.7128" rx="2.00769" ry="2.05436" fill="#DCDCDC"/>
<ellipse cx="70.0692" cy="112.124" rx="2.00769" ry="2.05436" fill="#DCDCDC"/>
<ellipse cx="70.0692" cy="129.535" rx="2.00769" ry="2.05437" fill="#DCDCDC"/>
<ellipse cx="70.0692" cy="146.946" rx="2.00769" ry="2.05437" fill="#DCDCDC"/>
<g clip-path="url(#clip0)">
<path d="M429.074 316.584C426.374 326.868 416.912 333.294 416.912 333.294C416.912 333.294 411.828 323.047 414.528 312.764C417.228 302.48 426.69 296.053 426.69 296.053C426.69 296.053 431.774 306.3 429.074 316.584Z" fill="#3F3D56"/>
<path d="M424.978 314.408C417.415 321.881 416.569 333.288 416.569 333.288C416.569 333.288 427.985 332.58 435.548 325.108C443.11 317.635 443.956 306.228 443.956 306.228C443.956 306.228 432.541 306.936 424.978 314.408Z" fill="#1D4ED8"/>
<path d="M150.953 277.682H165.196L200.294 263.947C200.294 263.947 225.219 253.772 223.184 273.104C221.149 292.435 217.589 318.38 217.589 318.38C217.589 318.38 206.398 313.293 200.294 314.819C194.19 316.345 198.259 283.787 198.259 283.787C198.259 283.787 148.41 307.697 143.832 304.645C139.254 301.592 138.237 280.226 138.237 280.226L150.953 277.682Z" fill="#2F2E41"/>
<path opacity="0.1" d="M150.953 277.682H165.196L200.294 263.947C200.294 263.947 225.219 253.772 223.184 273.104C221.149 292.435 217.589 318.38 217.589 318.38C217.589 318.38 206.398 313.293 200.294 314.819C194.19 316.345 198.259 283.787 198.259 283.787C198.259 283.787 148.41 307.697 143.832 304.645C139.254 301.592 138.237 280.226 138.237 280.226L150.953 277.682Z" fill="black"/>
<path d="M173.393 233.074L190.629 257.842L230.814 291.418C230.814 291.418 267.947 300.066 262.86 306.171C257.773 312.275 226.745 300.066 226.745 300.066C226.745 300.066 180.456 266.49 178.93 263.947C177.404 261.403 160.618 237.493 160.618 237.493L173.393 233.074Z" fill="#A0616A"/>
<path d="M173.393 233.074L190.629 257.842L230.814 291.418C230.814 291.418 267.947 300.066 262.86 306.171C257.773 312.275 226.745 300.066 226.745 300.066C226.745 300.066 180.456 266.49 178.93 263.947C177.404 261.403 160.618 237.493 160.618 237.493L173.393 233.074Z" fill="#CCA0A6"/>
<path d="M163.161 213.074L174.352 234.949C174.352 234.949 171.809 245.633 167.739 246.65C163.67 247.667 146.375 233.423 146.375 233.423L163.161 213.074Z" fill="#D0CDE1"/>
<path opacity="0.1" d="M163.161 213.074L174.352 234.949C174.352 234.949 171.809 245.633 167.739 246.65C163.67 247.667 146.375 233.423 146.375 233.423L163.161 213.074Z" fill="black"/>
<path d="M299.683 266.356L302.988 279.993C303.025 280.145 303.02 280.305 302.972 280.454L287.977 327.318C287.917 327.504 287.796 327.664 287.633 327.771C287.471 327.878 287.276 327.926 287.082 327.907C286.888 327.887 286.707 327.802 286.568 327.666C286.429 327.529 286.341 327.349 286.319 327.155L284.245 308.898C284.231 308.777 284.244 308.654 284.281 308.538L298.045 266.293C298.103 266.116 298.216 265.964 298.368 265.858C298.52 265.752 298.703 265.698 298.888 265.705C299.073 265.713 299.251 265.78 299.394 265.897C299.538 266.015 299.639 266.176 299.683 266.356Z" fill="#2F2E41"/>
<path d="M298.467 267.508L301.519 279.208L288.293 321.941L285.241 308.714L298.467 267.508Z" fill="#F2F2F2"/>
<path d="M231.831 331.098C232.34 332.624 284.733 330.589 285.241 330.081C285.685 329.444 286.06 328.762 286.361 328.046C286.839 327.028 287.276 326.011 287.276 326.011L285.241 309.538L233.357 307.697C233.357 307.697 232.06 321.656 231.796 328.046C231.73 329.659 231.73 330.793 231.831 331.098Z" fill="#2F2E41"/>
<path opacity="0.1" d="M278.629 311.767L279.646 326.011H256.756V311.767H278.629Z" fill="black"/>
<path opacity="0.1" d="M249.126 316.345L249.263 316.318L248.617 322.45H235.901V316.345H249.126Z" fill="black"/>
<path opacity="0.1" d="M231.831 331.098C232.34 332.624 284.733 330.59 285.241 330.081C285.685 329.444 286.06 328.762 286.361 328.046H231.796C231.73 329.659 231.73 330.793 231.831 331.098Z" fill="black"/>
<path d="M170.791 205.952C183.433 205.952 193.681 195.703 193.681 183.059C193.681 170.416 183.433 160.167 170.791 160.167C158.15 160.167 147.901 170.416 147.901 183.059C147.901 195.703 158.15 205.952 170.791 205.952Z" fill="#E5C4C9"/>
<path d="M169.265 203.408C169.265 203.408 161.635 216.635 160.109 223.757C158.583 230.879 137.219 209.513 137.219 209.513L134.422 202.136C134.422 202.136 154.514 192.725 152.988 185.094C151.462 177.463 169.265 203.408 169.265 203.408Z" fill="#E5C4C9"/>
<path d="M173.335 243.089L194.19 270.56L244.039 307.697C244.039 307.697 280.155 315.328 272.016 320.924C263.877 326.52 240.479 315.837 240.479 315.837C240.479 315.837 190.121 288.874 179.439 277.682C168.757 266.49 148.919 247.667 148.919 247.667L173.335 243.089Z" fill="#E6C4C9"/>
<path d="M145.358 285.822L151.462 295.487L187.891 284.025C195.884 281.51 204.649 282.436 211.739 286.903C218.097 290.909 222.167 297.268 213.011 306.679C194.699 325.502 182.491 315.328 182.491 315.328C182.491 315.328 120.942 344.325 110.769 330.081C100.595 315.836 100.087 308.714 100.087 308.714C100.087 308.714 139.254 284.295 145.358 285.822Z" fill="#2F2E41"/>
<path d="M221.658 319.398C221.658 319.398 237.935 330.081 218.606 335.168C199.277 340.255 185.034 333.133 185.034 333.133C185.034 333.133 168.248 333.133 168.248 324.485C168.248 315.837 173.843 314.819 173.843 314.819L191.138 317.363C191.138 317.363 211.993 311.767 221.658 319.398Z" fill="#D0CDE1"/>
<path d="M189.569 177.301C191.127 177.995 192.672 178.817 194.366 179.019C196.06 179.221 197.988 178.629 198.79 177.123C199.223 176.31 199.272 175.353 199.292 174.432C199.354 171.638 199.152 168.618 197.382 166.457C196.255 165.081 194.611 164.213 193.445 162.871C192.609 161.909 192.053 160.743 191.455 159.619C189.187 155.359 185.829 151.265 181.163 150.037C179.214 149.524 177.17 149.549 175.155 149.578L163.404 149.744C161.502 149.77 159.571 149.802 157.751 150.352C153.968 151.496 151.214 154.677 148.692 157.719C146.805 159.995 144.913 162.295 143.497 164.89C141.466 168.678 140.439 172.922 140.514 177.219C140.499 178.321 140.641 179.419 140.937 180.481C141.283 181.455 141.712 182.397 142.219 183.297C144.423 187.626 145.731 193.034 143.249 197.21C147.561 195.448 151.826 193.139 154.67 189.451C155.942 187.801 156.94 185.869 158.636 184.658C160.331 183.448 163.094 183.343 164.182 185.12C164.556 185.838 164.748 186.638 164.743 187.448C164.822 188.782 164.82 190.167 165.385 191.378C165.951 192.588 167.298 193.565 168.584 193.203C170.798 192.579 170.586 189.18 172.292 187.635C173.588 186.463 175.586 186.687 177.251 186.154C179.19 185.534 180.645 183.854 181.474 181.994C182.104 180.581 182.095 176.882 183.287 176.116C184.782 175.156 188.183 176.683 189.569 177.301Z" fill="#2F2E41"/>
<path d="M132.605 199.723C133.634 199.449 134.719 199.451 135.747 199.731C139.012 200.608 146.332 202.929 147.901 206.461C149.936 211.039 157.057 218.161 157.057 218.161C157.057 218.161 166.722 227.827 164.687 234.441C162.653 241.054 155.023 248.685 155.023 248.685C155.023 248.685 157.057 280.226 146.884 288.365C136.711 296.505 132.641 290.909 132.641 298.54C132.641 306.171 101.104 330.081 95 315.328C95 315.328 98.052 287.857 97.0347 278.191C96.032 268.664 97.4998 209.228 132.605 199.723Z" fill="#D0CDE1"/>
<path d="M148.919 212.565C148.919 212.565 179.947 235.458 174.352 245.124C174.352 245.124 155.531 254.281 151.462 253.772C147.393 253.263 131.624 235.458 127.555 233.932C123.485 232.406 121.451 204.935 148.919 212.565Z" fill="#D0CDE1"/>
<path d="M287.549 161.942C301.427 161.942 312.677 150.69 312.677 136.81C312.677 122.931 301.427 111.679 287.549 111.679C273.67 111.679 262.42 122.931 262.42 136.81C262.42 150.69 273.67 161.942 287.549 161.942Z" fill="#F2F2F2"/>
<path d="M495.098 104.171H354.281V74.702H495.098V104.171ZM354.902 103.551H494.477V75.3224H354.902V103.551Z" fill="#3F3D56"/>
<path d="M484.862 80.5958H344.666V109.445H484.862V80.5958Z" fill="#1D4ED8"/>
<path d="M256.042 53.0653C257.241 53.0653 258.213 52.0931 258.213 50.8939C258.213 49.6946 257.241 48.7224 256.042 48.7224C254.842 48.7224 253.87 49.6946 253.87 50.8939C253.87 52.0931 254.842 53.0653 256.042 53.0653Z" fill="#6C63FF"/>
<path d="M263.486 53.0653C264.685 53.0653 265.657 52.0931 265.657 50.8939C265.657 49.6946 264.685 48.7224 263.486 48.7224C262.287 48.7224 261.314 49.6946 261.314 50.8939C261.314 52.0931 262.287 53.0653 263.486 53.0653Z" fill="#6C63FF"/>
<path d="M270.93 53.0653C272.129 53.0653 273.101 52.0931 273.101 50.8939C273.101 49.6946 272.129 48.7224 270.93 48.7224C269.731 48.7224 268.758 49.6946 268.758 50.8939C268.758 52.0931 269.731 53.0653 270.93 53.0653Z" fill="#6C63FF"/>
<path d="M511 214.992H249.838V45H511V214.992ZM250.459 214.371H510.38V45.6204H250.459V214.371Z" fill="#3F3D56"/>
<path d="M510.69 54.41H250.148V55.0304H510.69V54.41Z" fill="#3F3D56"/>
<path d="M256.662 52.4448C256.171 52.4448 255.692 52.2993 255.283 52.0266C254.875 51.7539 254.557 51.3663 254.37 50.9129C254.182 50.4594 254.133 49.9604 254.228 49.4791C254.324 48.9977 254.56 48.5555 254.907 48.2084C255.254 47.8614 255.697 47.625 256.178 47.5293C256.659 47.4335 257.158 47.4826 257.612 47.6705C258.065 47.8583 258.453 48.1764 258.725 48.5845C258.998 48.9926 259.143 49.4724 259.143 49.9632C259.143 50.6211 258.881 51.2519 258.416 51.7171C257.951 52.1824 257.32 52.4441 256.662 52.4448ZM256.662 48.102C256.294 48.102 255.934 48.2111 255.628 48.4156C255.322 48.6202 255.084 48.9108 254.943 49.2509C254.802 49.591 254.765 49.9653 254.837 50.3263C254.909 50.6873 255.086 51.019 255.346 51.2793C255.606 51.5396 255.938 51.7168 256.299 51.7887C256.66 51.8605 257.034 51.8236 257.374 51.6827C257.714 51.5419 258.005 51.3033 258.209 50.9972C258.414 50.6912 258.523 50.3313 258.523 49.9632C258.522 49.4697 258.326 48.9967 257.977 48.6477C257.628 48.2988 257.155 48.1025 256.662 48.102Z" fill="#3F3D56"/>
<path d="M264.106 52.4448C263.615 52.4448 263.135 52.2993 262.727 52.0266C262.319 51.7539 262.001 51.3663 261.814 50.9129C261.626 50.4594 261.577 49.9604 261.672 49.4791C261.768 48.9977 262.004 48.5555 262.351 48.2084C262.698 47.8614 263.141 47.625 263.622 47.5293C264.103 47.4335 264.602 47.4826 265.056 47.6705C265.509 47.8583 265.896 48.1764 266.169 48.5845C266.442 48.9926 266.587 49.4724 266.587 49.9632C266.587 50.6211 266.325 51.2519 265.86 51.7171C265.395 52.1824 264.764 52.4441 264.106 52.4448ZM264.106 48.102C263.738 48.102 263.378 48.2111 263.072 48.4156C262.766 48.6202 262.527 48.9108 262.387 49.2509C262.246 49.591 262.209 49.9653 262.281 50.3263C262.353 50.6873 262.53 51.019 262.79 51.2793C263.05 51.5396 263.382 51.7168 263.743 51.7887C264.104 51.8605 264.478 51.8236 264.818 51.6827C265.158 51.5419 265.449 51.3033 265.653 50.9972C265.858 50.6912 265.967 50.3313 265.967 49.9632C265.966 49.4697 265.77 48.9967 265.421 48.6477C265.072 48.2988 264.599 48.1025 264.106 48.102Z" fill="#3F3D56"/>
<path d="M271.55 52.4448C271.059 52.4448 270.58 52.2993 270.172 52.0266C269.763 51.7539 269.445 51.3663 269.258 50.9129C269.07 50.4594 269.021 49.9604 269.116 49.4791C269.212 48.9977 269.448 48.5555 269.795 48.2084C270.143 47.8614 270.585 47.625 271.066 47.5293C271.547 47.4335 272.046 47.4826 272.5 47.6705C272.953 47.8583 273.341 48.1764 273.613 48.5845C273.886 48.9926 274.031 49.4724 274.031 49.9632C274.031 50.6211 273.769 51.2519 273.304 51.7171C272.839 52.1824 272.208 52.4441 271.55 52.4448ZM271.55 48.102C271.182 48.102 270.822 48.2111 270.516 48.4156C270.21 48.6202 269.972 48.9108 269.831 49.2509C269.69 49.591 269.653 49.9653 269.725 50.3263C269.797 50.6873 269.974 51.019 270.234 51.2793C270.494 51.5396 270.826 51.7168 271.187 51.7887C271.548 51.8605 271.922 51.8236 272.262 51.6827C272.602 51.5419 272.893 51.3033 273.097 50.9972C273.302 50.6912 273.411 50.3313 273.411 49.9632C273.411 49.4697 273.214 48.9967 272.865 48.6477C272.516 48.2988 272.043 48.1025 271.55 48.102Z" fill="#3F3D56"/>
<path d="M332.258 54.7202H331.638V214.922H332.258V54.7202Z" fill="#3F3D56"/>
<path d="M406.855 133.486H361.26V139.69H406.855V133.486Z" fill="#F2F2F2"/>
<path d="M478.504 133.486H432.909V139.69H478.504V133.486Z" fill="#F2F2F2"/>
<path d="M409.646 136.898H363.431V130.073H409.646V136.898ZM364.052 136.277H409.026V130.694H364.052V136.277Z" fill="#3F3D56"/>
<path d="M406.855 181.567H361.26V187.771H406.855V181.567Z" fill="#F2F2F2"/>
<path d="M409.646 184.979H363.431V178.155H409.646V184.979ZM364.052 184.359H409.026V178.775H364.052V184.359Z" fill="#3F3D56"/>
<path d="M478.659 156.906H361.415V163.11H478.659V156.906Z" fill="#F2F2F2"/>
<path d="M481.45 160.939H363.586V154.114H481.45V160.939ZM364.207 160.318H480.83V154.735H364.207V160.318Z" fill="#3F3D56"/>
<path d="M481.295 136.898H435.08V130.073H481.295V136.898ZM435.701 136.277H480.675V130.694H435.701V136.277Z" fill="#3F3D56"/>
<path d="M291.801 155.369C286.755 155.369 281.822 153.872 277.626 151.068C273.43 148.264 270.159 144.279 268.228 139.616C266.297 134.953 265.792 129.823 266.776 124.873C267.761 119.923 270.191 115.376 273.759 111.807C277.327 108.238 281.874 105.808 286.823 104.823C291.773 103.838 296.903 104.344 301.565 106.275C306.228 108.207 310.213 111.477 313.016 115.674C315.82 119.87 317.316 124.804 317.316 129.851C317.309 136.616 314.618 143.103 309.835 147.887C305.051 152.67 298.566 155.361 291.801 155.369ZM291.801 105.106C286.908 105.106 282.124 106.557 278.055 109.276C273.986 111.995 270.815 115.86 268.942 120.381C267.07 124.903 266.58 129.878 267.535 134.678C268.489 139.478 270.846 143.888 274.306 147.348C277.766 150.809 282.175 153.166 286.974 154.12C291.774 155.075 296.748 154.585 301.269 152.712C305.791 150.839 309.655 147.668 312.373 143.598C315.092 139.529 316.543 134.745 316.543 129.851C316.536 123.29 313.927 117.001 309.288 112.362C304.65 107.723 298.361 105.113 291.801 105.106Z" fill="#3F3D56"/>
<path d="M493.603 332.836H384.197V333.609H493.603V332.836Z" fill="#3F3D56"/>
</g>
<ellipse cx="487.008" cy="179.922" rx="2.00769" ry="1.92199" fill="#DCDCDC"/>
<ellipse cx="487.008" cy="196.211" rx="2.00769" ry="1.92199" fill="#DCDCDC"/>
<ellipse cx="487.008" cy="212.5" rx="2.00769" ry="1.92199" fill="#DCDCDC"/>
<ellipse cx="487.008" cy="228.789" rx="2.00769" ry="1.92198" fill="#DCDCDC"/>
<ellipse cx="487.008" cy="245.078" rx="2.00769" ry="1.92198" fill="#DCDCDC"/>
<ellipse cx="504.023" cy="179.922" rx="2.00769" ry="1.92199" fill="#DCDCDC"/>
<ellipse cx="504.023" cy="196.211" rx="2.00769" ry="1.92199" fill="#DCDCDC"/>
<ellipse cx="504.023" cy="212.5" rx="2.00769" ry="1.92199" fill="#DCDCDC"/>
<ellipse cx="504.023" cy="228.789" rx="2.00769" ry="1.92198" fill="#DCDCDC"/>
<ellipse cx="504.023" cy="245.078" rx="2.00769" ry="1.92198" fill="#DCDCDC"/>
<ellipse cx="521.038" cy="179.922" rx="2.00769" ry="1.92199" fill="#DCDCDC"/>
<ellipse cx="521.038" cy="196.211" rx="2.00769" ry="1.92199" fill="#DCDCDC"/>
<ellipse cx="521.038" cy="212.5" rx="2.00769" ry="1.92199" fill="#DCDCDC"/>
<ellipse cx="521.038" cy="228.789" rx="2.00769" ry="1.92198" fill="#DCDCDC"/>
<ellipse cx="521.038" cy="245.078" rx="2.00769" ry="1.92198" fill="#DCDCDC"/>
<defs>
<clipPath id="clip0">
<rect width="416" height="292" fill="white" transform="translate(95 45)"/>
</clipPath>
</defs>
</svg>
