<svg width="215" height="82" viewBox="0 0 215 82" fill="none" xmlns="http://www.w3.org/2000/svg">
<path d="M208.333 8.58817C208.065 8.29616 207.688 8.1297 207.292 8.1297H152.174C151.778 8.1297 151.401 8.29616 151.133 8.58817C150.865 8.88018 150.734 9.27234 150.769 9.66592L155.735 65.2845C155.787 65.8657 156.192 66.3552 156.753 66.516L179.338 72.967C179.464 73.0023 179.595 73.0206 179.725 73.0206C179.854 73.0206 179.985 73.0023 180.111 72.967L202.716 66.516C203.277 66.3552 203.682 65.8657 203.734 65.2845L208.697 9.66592C208.732 9.27234 208.6 8.88018 208.333 8.58817ZM161.394 46.2235L171.269 48.963V20.8257H176.912V57.5032L161.394 53.1993V46.2235ZM198.148 36.3431L196.661 53.6239L182.554 57.5032V51.0127L192.076 48.3959L192.429 43.1059L182.554 44.8072V20.8257H199.482L198.996 26.4684H188.197V37.7538L198.148 36.3431Z" fill="#3F3D56"/>
<path d="M141.381 9.27316C140.865 8.69666 140.128 8.36761 139.355 8.36761H86.692C85.9197 8.36761 85.1828 8.69666 84.6661 9.27316C84.1494 9.84967 83.9047 10.6193 83.989 11.3861L89.977 65.2921C90.0967 66.388 90.8717 67.3045 91.9322 67.6063L112.273 73.4176C112.518 73.4883 112.771 73.5237 113.021 73.5237C113.271 73.5237 113.524 73.4883 113.769 73.4176L134.11 67.6063C135.17 67.3045 135.942 66.388 136.065 65.2921L142.056 11.3861C142.143 10.6193 141.898 9.84967 141.381 9.27316ZM128.024 35.7625L126.811 55.5731L113.111 60.0519L99.4105 55.5731L98.8911 46.0988H105.825L106 50.4063L113.111 52.8184L120.222 50.4063L120.741 42.6561H105.48L105.135 35.7652H121.089L121.609 28.8744H97.6756L97.1562 21.9808H128.891L128.024 35.7625Z" fill="#3F3D56"/>
<path d="M69.1481 9.27316C68.6314 8.69666 67.8944 8.36761 67.1221 8.36761H14.4589C13.6866 8.36761 12.9496 8.69666 12.4329 9.27316C11.9163 9.84967 11.6715 10.6193 11.7558 11.3861L17.7439 65.2921C17.8635 66.388 18.6385 67.3045 19.6991 67.6063L40.04 73.4176C40.2847 73.4883 40.5376 73.5237 40.7878 73.5237C41.038 73.5237 41.2909 73.4883 41.5356 73.4176L61.8765 67.6063C62.937 67.3045 63.7093 66.388 63.8317 65.2921L69.8225 11.3861C69.9095 10.6193 69.6647 9.84967 69.1481 9.27316ZM56.0978 28.5725H31.8139L32.3904 35.4851H55.5132L53.7782 55.9076L40.7987 60.0356L40.6709 59.9948L27.8354 55.9022L27.1338 47.5809H33.421L33.6957 50.8142L40.8666 52.3942L47.9125 50.8115L48.6604 42.0742H26.6607L24.9584 21.9645H56.6635L56.0978 28.5725Z" fill="#3F3D56"/>
</svg>
