<svg width="96" height="96" viewBox="0 0 96 96" fill="none" xmlns="http://www.w3.org/2000/svg">
<path d="M48 14C57.8008 14 67 16 73 17.6016C75.3984 18.1992 77 20.1992 77.3984 22.8008C77.8008 26.6016 78 30.6016 78 34.6016C78 65.8008 55 78.3984 48 81.3984C41 78.1992 18 65.6016 18 34.6016C18 30.6016 18.1992 26.6016 18.6016 22.8008C18.8008 20.1992 20.6016 18.1992 23 17.6016C29 16 38.1992 14 48 14ZM48 8C37.6016 8 27.8008 10 21.3984 11.8008C16.8008 13 13.1992 17.1992 12.8008 22C12.3984 25.3984 12 29.8008 12 34.6016C12 75.6016 48 88 48 88C48 88 84 75.6016 84 34.6016C84 29.6016 83.6016 25.3984 83.1992 22C82.6016 17 79.1992 13 74.3984 11.8008C68.1992 10 58.3984 8 48 8Z" fill="#fff"/>
<path d="M46 56H50V72H46V56Z" fill="#9D9D9D"/>
<path d="M48 20C48 20 36 30 36 46C36 56.3984 42.6016 63 46 66L48 60L50 66C53.3984 63 60 56.3984 60 46C60 30 48 20 48 20Z" fill="#fff"/>
<path d="M48 20C48 20 36 30 36 46C36 56.3984 42.6016 63 46 66L48 60V20Z" fill="#CDCDCD"/>
</svg>
