<svg width="96" height="96" viewBox="0 0 96 96" fill="none" xmlns="http://www.w3.org/2000/svg">
<path d="M63.9023 18C63.4313 18 63 18.3773 63 18.9023V35.3906L59.2617 33.2109C59.0277 33.0729 58.764 33.0059 58.5 33.0059C58.236 33.0059 57.9723 33.0729 57.7383 33.2109L48.7559 38.4492C48.2879 38.7192 48 39.2189 48 39.7559V50.2441C48 50.7841 48.2879 51.2808 48.7559 51.5508L57.7383 56.7891C57.9723 56.9271 58.236 56.9941 58.5 56.9941C58.764 56.9941 59.0277 56.9271 59.2617 56.7891L68.2441 51.5508C68.7121 51.2808 69 50.7811 69 50.2441V45V39.7559V21.6914C69 21.1574 68.7149 20.6665 68.2559 20.3965L64.3477 18.123C64.2007 18.039 64.0523 18 63.9023 18ZM34.5 33.0059C34.2368 33.0059 33.9738 33.0744 33.7383 33.2109L24.7559 38.4492C24.2879 38.7192 24 39.2189 24 39.7559V50.2441C24 50.7841 24.2879 51.2808 24.7559 51.5508L33.7383 56.7891C34.2093 57.0621 34.7907 57.0621 35.2617 56.7891L44.2441 51.5508C44.7121 51.2808 45 50.7811 45 50.2441V39.7559C45 39.2159 44.7121 38.7192 44.2441 38.4492L35.2617 33.2109C35.0262 33.0744 34.7632 33.0059 34.5 33.0059ZM82.5 33.0059C82.236 33.0059 81.9723 33.0729 81.7383 33.2109L72.7559 38.4492C72.2879 38.7192 72 39.2189 72 39.7559V50.2441C72 50.7841 72.2879 51.2808 72.7559 51.5508L81.4688 56.8184C81.9368 57.1034 82.524 57.1061 82.998 56.8301L87.2812 54.3398C87.7253 54.0848 87.7282 53.4407 87.2812 53.1797L78 47.7129V42.3281L82.5 39.709L87 42.3281V46.0781C87 46.5791 87.4211 46.6563 87.7031 46.4883C88.8371 45.8223 92.2559 43.8398 92.2559 43.8398C92.7149 43.5728 93 43.0789 93 42.5449V39.7559C93 39.2159 92.7121 38.7192 92.2441 38.4492L83.2617 33.2109C83.0247 33.0729 82.764 33.0059 82.5 33.0059ZM10.5 33.0117C10.236 33.0117 9.97228 33.0788 9.73828 33.2168L0.755859 38.4492C0.287859 38.7222 0 39.2217 0 39.7617V53.1504C0 53.8044 0.707484 54.2098 1.27148 53.8828L5.25586 51.5625C5.71486 51.2925 6 50.8016 6 50.2676V42.3398L10.5 39.7148L15 42.3398V50.2676C15 50.8016 15.2851 51.2925 15.7441 51.5625L19.7285 53.8828C20.2925 54.2128 21 53.8044 21 53.1504V39.7617C21 39.2217 20.7121 38.7222 20.2441 38.4492L11.2617 33.2168C11.0277 33.0788 10.764 33.0117 10.5 33.0117ZM58.5 39.709L63 42.334V45V47.666L58.5 50.291L54 47.666V42.334L58.5 39.709ZM82.5 42.0117L79.9277 43.5117V46.5059L82.5 48L85.0723 46.5059V43.5117L82.5 42.0117ZM46.2188 53.9941C45.9101 53.9941 45.5981 54.0697 45.3281 54.2227L36.8906 59.0977C36.3356 59.4037 36 60.0058 36 60.6328V70.3711C36 70.9981 36.3506 71.5882 36.8906 71.9062L39.1113 73.1719C40.1763 73.6969 40.5678 73.6992 41.0508 73.6992C42.6408 73.6992 43.5469 72.7484 43.5469 71.0684V61.4473C43.5469 61.3003 43.4328 61.1953 43.3008 61.1953H42.2344C42.0874 61.1953 41.9824 61.3153 41.9824 61.4473V71.0684C41.9824 71.7974 41.2121 72.545 39.9551 71.918L37.6465 70.5879C37.5715 70.5429 37.5176 70.4522 37.5176 70.3652V60.627C37.5176 60.54 37.5595 60.4376 37.6465 60.3926L46.084 55.5293C46.174 55.4843 46.2757 55.4843 46.3477 55.5293L54.791 60.3926C54.878 60.4376 54.9199 60.525 54.9199 60.627V70.3652C54.9199 70.4672 54.863 70.5546 54.791 70.5996L46.3477 75.4805C46.2727 75.5255 46.156 75.5255 46.084 75.4805L43.9277 74.1973C43.8707 74.1673 43.7797 74.1497 43.7227 74.1797C43.1257 74.5307 43.0062 74.5766 42.4512 74.7656C42.3042 74.8106 42.1043 74.9008 42.5273 75.1348L45.3281 76.7988C45.6071 76.9458 45.9128 77.0332 46.2188 77.0332C46.5397 77.0332 46.8517 76.9461 47.0977 76.7871L55.5352 71.9062C56.0902 71.6003 56.4258 70.9981 56.4258 70.3711V60.6328C56.4258 60.0058 56.0752 59.4187 55.5352 59.0977L47.0977 54.2227C46.8352 54.0697 46.5274 53.9941 46.2188 53.9941ZM59.3789 58.4883C58.5179 58.4883 57.7617 59.1845 57.7617 60.1055C57.7617 60.9965 58.4879 61.7285 59.3789 61.7285C60.2699 61.7285 60.9961 60.9965 60.9961 60.1055C60.9961 59.1845 60.2549 58.4733 59.3789 58.4883ZM59.3613 58.7461C60.1233 58.7461 60.7383 59.3465 60.7383 60.1055C60.7383 60.8495 60.1203 61.4644 59.3613 61.4824C58.6143 61.4824 58.0078 60.8645 58.0078 60.1055C58.0078 59.3465 58.6173 58.7461 59.3613 58.7461ZM58.7695 59.1855V61.0078H59.1152V60.2812H59.4375C59.5695 60.2812 59.6009 60.3375 59.6309 60.4395C59.6309 60.4545 59.6862 60.9267 59.7012 61.0137H60.0762C60.0342 60.9267 60.0033 60.6773 59.9883 60.5273C59.9463 60.2933 59.9326 60.1322 59.6836 60.1172C59.8156 60.0722 60.0352 60.002 60.0352 59.666C60.0352 59.183 59.6155 59.1855 59.3965 59.1855H58.7695ZM59.1152 59.4785H59.4082C59.4982 59.4785 59.6719 59.4756 59.6719 59.7246C59.6719 59.8266 59.6276 59.9913 59.3906 59.9883H59.1152V59.4785ZM48.4805 60.9668C46.0715 60.9668 44.6426 61.9935 44.6426 63.6855C44.6426 65.5395 46.0739 66.0355 48.3809 66.2695C51.1409 66.5455 51.3574 66.9424 51.3574 67.4824C51.3574 68.4304 50.5965 68.8242 48.8145 68.8242C46.5795 68.8242 46.0878 68.2702 45.9258 67.1602C45.9108 67.0432 45.8058 66.9551 45.6738 66.9551H44.5781C44.4461 66.9551 44.332 67.06 44.332 67.207C44.332 68.623 45.1039 70.3184 48.7969 70.3184C51.5059 70.3154 53.0391 69.2658 53.0391 67.4238C53.0391 65.5998 51.8109 65.1147 49.2129 64.7637C46.5849 64.4127 46.3242 64.2361 46.3242 63.6211C46.3242 63.1111 46.5395 62.4434 48.4805 62.4434C50.2175 62.4434 50.8649 62.8232 51.1289 63.9902C51.1589 64.1072 51.2404 64.1777 51.3574 64.1777H52.4531C52.5251 64.1777 52.5869 64.1494 52.6289 64.1074C52.6739 64.0504 52.7025 63.9919 52.6875 63.9199C52.5135 61.9039 51.1835 60.9668 48.4805 60.9668Z" fill="#fff"/>
</svg>
