<svg width="96" height="96" viewBox="0 0 96 96" fill="#fff" xmlns="http://www.w3.org/2000/svg">
<path d="M48 68C22.2 68 2 59.2 2 48C2 36.8 22.2 28 48 28C73.8 28 94 36.8 94 48C94 59.2 73.8 68 48 68ZM48 32C22.8 32 6 40.2 6 48C6 55.8 22.8 64 48 64C73.2 64 90 55.8 90 48C90 40.2 73.2 32 48 32Z" fill="#fff"/>
<path d="M30.1999 89.2C28.1999 89.2 26.5999 88.8 24.9999 87.8C15.1999 82.2 17.7999 60.4 30.5999 38C36.5999 27.6 43.9999 18.8 51.1999 13.2C58.9999 7.19998 65.9999 5.39998 70.7999 8.19998C75.7999 11 77.5999 18 76.3999 27.8C75.1999 37 71.1999 47.8 65.1999 58.2C59.1999 68.6 51.7999 77.4 44.5999 83C39.3999 87 34.3999 89.2 30.1999 89.2ZM65.7999 10.8C62.5999 10.8 58.3999 12.6 53.7999 16.2C46.9999 21.6 39.9999 30 34.1999 40C21.5999 61.8 20.3999 80.6 26.9999 84.4C30.3999 86.4 35.9999 84.6 42.1999 79.8C48.9999 74.4 55.9999 66 61.7999 56C67.5999 46 71.3999 35.8 72.5999 27.2C73.5999 19.2 72.3999 13.6 68.9999 11.6C67.9999 11.2 66.9999 10.8 65.7999 10.8Z" fill="#fff"/>
<path d="M66.0001 89.2C56.0001 89.2 41.6001 77 30.8001 58C17.8001 35.6 15.2001 13.8 25.0001 8.19996C34.8001 2.59996 52.4001 15.6 65.4001 38C71.4001 48.4 75.4001 59.2 76.6001 68.4C78.0001 78.2 76.0001 85 71.0001 88C69.4001 88.8 67.8001 89.2 66.0001 89.2ZM27.0001 11.6C20.4001 15.4 21.6001 34.2 34.2001 56C46.8001 77.8 62.4001 88.2 69.0001 84.4C72.4001 82.4 73.6001 76.8 72.6001 68.8C71.4001 60.2 67.6001 50 61.8001 40C49.2001 18.2 33.6001 7.79996 27.0001 11.6Z" fill="#fff"/>
<path d="M48 56C52.4183 56 56 52.4183 56 48C56 43.5817 52.4183 40 48 40C43.5817 40 40 43.5817 40 48C40 52.4183 43.5817 56 48 56Z" fill="#fff"/>
</svg>
