<svg width="96" height="96" viewBox="0 0 96 96" fill="none" xmlns="http://www.w3.org/2000/svg">
<path d="M46.0801 3.84003C32.3176 3.84003 21.1201 19.7625 21.1201 39.3375C21.1201 49.1175 23.9701 57.9 28.4926 64.305C27.4126 65.715 26.8801 67.4175 26.8801 69.12C26.8801 70.9875 27.4951 72.8775 28.8076 74.355C30.1126 75.8325 32.1601 76.8 34.5601 76.8C36.9601 76.8 39.0076 75.8325 40.3126 74.355C41.6251 72.8775 42.2401 70.9875 42.2401 69.12C42.2401 67.2525 41.6251 65.3625 40.3126 63.885C39.0076 62.4075 36.9601 61.44 34.5601 61.44C33.4426 61.44 32.4151 61.665 31.4926 62.04C27.4876 56.2875 24.9601 48.2775 24.9601 39.3375C24.9601 21.8775 34.4326 7.68003 46.0801 7.68003C56.4826 7.68003 65.1301 19.0275 66.8626 33.8925C68.2201 34.4025 69.5701 34.9875 70.8976 35.6325C69.5926 17.79 58.9651 3.84003 46.0801 3.84003ZM42.2401 28.8C39.8401 28.8 37.7926 29.7675 36.4876 31.245C35.1751 32.7225 34.5601 34.6125 34.5601 36.48C34.5601 38.3475 35.1751 40.2375 36.4876 41.715C37.7926 43.1925 39.8401 44.16 42.2401 44.16C44.6401 44.16 46.6876 43.1925 47.9926 41.715C48.8176 40.7925 49.3351 39.6975 49.6276 38.5575C56.4976 38.265 64.2151 40.2975 71.3101 44.55C86.4676 53.6325 94.1026 69.48 88.3276 79.8675C86.2726 83.5725 82.6726 86.205 77.9251 87.4725C71.2801 89.2575 63.1126 88.1625 55.3201 84.6375C54.1951 85.5375 53.0026 86.3925 51.7801 87.225C58.1626 90.4425 64.9201 92.1525 71.1601 92.1525C73.8676 92.1525 76.4776 91.8375 78.9151 91.185C84.6901 89.6325 89.1076 86.3625 91.6876 81.7275C98.4526 69.5475 90.2026 51.3975 73.2826 41.2575C65.6551 36.675 57.2626 34.44 49.7026 34.6875C49.4326 33.4425 48.8851 32.2425 47.9926 31.245C46.6876 29.7675 44.6401 28.8 42.2401 28.8ZM42.2401 32.64C43.6801 32.64 44.5126 33.1125 45.1276 33.795C45.7351 34.4775 46.0801 35.4675 46.0801 36.48C46.0801 37.4925 45.7351 38.4825 45.1276 39.165C44.5126 39.8475 43.6801 40.32 42.2401 40.32C40.8001 40.32 39.9676 39.8475 39.3526 39.165C38.7451 38.4825 38.4001 37.4925 38.4001 36.48C38.4001 35.4675 38.7451 34.4775 39.3526 33.795C39.9676 33.1125 40.8001 32.64 42.2401 32.64ZM17.5951 44.7975C4.22262 55.245 -1.72488 70.86 4.31262 81.7275C6.89262 86.3625 11.3101 89.6325 17.0851 91.1775C19.5226 91.83 22.1326 92.1525 24.8401 92.1525C32.1376 92.1525 40.1476 89.835 47.4376 85.4625C56.1826 80.22 62.4826 72.8325 65.6851 65.2425C67.9051 65.13 69.8026 64.2225 71.0326 62.835C72.3451 61.3575 72.9601 59.4675 72.9601 57.6C72.9601 55.7325 72.3451 53.8425 71.0326 52.365C69.7276 50.8875 67.6801 49.92 65.2801 49.92C62.8801 49.92 60.8326 50.8875 59.5276 52.365C58.2151 53.8425 57.6001 55.7325 57.6001 57.6C57.6001 59.4675 58.2151 61.3575 59.5276 62.835C60.1651 63.555 60.9826 64.14 61.9201 64.5675C58.9051 71.115 53.2126 77.52 45.4576 82.17C36.3376 87.6375 26.1076 89.625 18.0751 87.4725C13.3276 86.205 9.73511 83.5725 7.67262 79.86C2.79012 71.085 7.51511 58.425 18.2476 49.215C17.9626 47.775 17.7451 46.2975 17.5951 44.7975ZM65.2801 53.76C66.7201 53.76 67.5526 54.2325 68.1676 54.915C68.7751 55.5975 69.1201 56.5875 69.1201 57.6C69.1201 58.6125 68.7751 59.6025 68.1676 60.285C67.5526 60.9675 66.7201 61.44 65.2801 61.44C63.8401 61.44 63.0076 60.9675 62.3926 60.285C61.7851 59.6025 61.4401 58.6125 61.4401 57.6C61.4401 56.5875 61.7851 55.5975 62.3926 54.915C63.0076 54.2325 63.8401 53.76 65.2801 53.76ZM34.5601 65.28C36.0001 65.28 36.8326 65.7525 37.4476 66.435C38.0551 67.1175 38.4001 68.1075 38.4001 69.12C38.4001 70.1325 38.0551 71.1225 37.4476 71.805C36.8326 72.4875 36.0001 72.96 34.5601 72.96C33.1201 72.96 32.2876 72.4875 31.6726 71.805C31.0651 71.1225 30.7201 70.1325 30.7201 69.12C30.7201 68.1075 31.0651 67.1175 31.6726 66.435C32.2876 65.7525 33.1201 65.28 34.5601 65.28Z" fill="#fff"/>
</svg>
